<?xml version="1.0" standalone="no"?>
<!DOCTYPE svg PUBLIC "-//W3C//DTD SVG 20010904//EN"
 "http://www.w3.org/TR/2001/REC-SVG-20010904/DTD/svg10.dtd">
<svg version="1.0" xmlns="http://www.w3.org/2000/svg"
 width="89.000000pt" height="89.000000pt" viewBox="0 0 89.000000 89.000000"
 preserveAspectRatio="xMidYMid meet">
<metadata>
Created by potrace 1.14, written by Peter Selinger 2001-2017
</metadata>
<g transform="translate(0.000000,89.000000) scale(0.100000,-0.100000)"
fill="#000000" stroke="none">
<path d="M60 827 l-55 -22 0 -299 0 -299 130 -45 c105 -37 137 -44 167 -38 28
5 38 12 38 26 0 16 6 18 38 14 20 -3 45 -5 55 -5 9 0 17 -6 17 -14 0 -7 8 -16
18 -19 59 -17 209 -59 222 -61 14 -2 49 11 152 57 l46 21 1 113 0 113 -27 -1
c-36 -1 -166 12 -171 17 -2 2 -4 55 -5 117 l-1 112 -72 11 c-40 6 -73 9 -74 6
-3 -25 -16 43 -14 77 1 23 -1 42 -4 43 -19 2 -63 12 -211 49 -91 22 -172 43
-180 45 -8 2 -40 -6 -70 -18z m44 -606 c3 -4 -6 -6 -19 -3 -14 2 -25 6 -25 8
0 8 39 4 44 -5z m131 -36 l30 -15 -35 6 c-19 3 -39 10 -44 15 -15 14 15 10 49
-6z"/>
</g>
</svg>
